HIERARCHY
ROOT hip
{
  OFFSET 50.8232 85.1669 -76.3744
  CHANNELS 6 Xposition Yposition Zposition Zrotation Xrotation Yrotation
  JOINT abdomen
  {
    OFFSET 0 20.6881 -0.73152
    CHANNELS 3 Zrotation Xrotation Yrotation
    JOINT chest
    {
      OFFSET 0 11.7043 -0.48768
      CHANNELS 3 Zrotation Xrotation Yrotation
      JOINT neck
      {
        OFFSET 0 22.1894 -2.19456
        CHANNELS 3 Zrotation Xrotation Yrotation
        JOINT head
        {
          OFFSET -0.24384 7.07133 1.2192
          CHANNELS 3 Zrotation Xrotation Yrotation
          JOINT leftEye
          {
            OFFSET 4.14528 8.04674 8.04672
            CHANNELS 3 Zrotation Xrotation Yrotation
            End Site
            {
              OFFSET 1 0 0
            }
          }
          JOINT rightEye
          {
            OFFSET -3.6576 8.04674 8.04672
            CHANNELS 3 Zrotation Xrotation Yrotation
            End Site
            {
              OFFSET 1 0 0
            }
          }
        }
      }
      JOINT rCollar
      {
        OFFSET -2.68224 19.2634 -4.8768
        CHANNELS 3 Zrotation Xrotation Yrotation
        JOINT rShldr
        {
          OFFSET -8.77824 -1.95073 1.46304
          CHANNELS 3 Zrotation Xrotation Yrotation
          JOINT rForeArm
          {
            OFFSET -28.1742 -1.7115 0.48768
            CHANNELS 3 Zrotation Xrotation Yrotation
            JOINT rHand
            {
              OFFSET -22.5879 0.773209 7.07136
              CHANNELS 3 Zrotation Xrotation Yrotation
              JOINT rThumb1
              {
                OFFSET -1.2192 -0.487915 3.41376
                CHANNELS 3 Zrotation Xrotation Yrotation
                JOINT rThumb2
                {
                  OFFSET -3.37035 -0.52449 3.41376
                  CHANNELS 3 Zrotation Xrotation Yrotation
                  End Site
                  {
                    OFFSET -1.78271 -1.18214 1.43049
                  }
                }
              }
              JOINT rIndex1
              {
                OFFSET -7.75947 0.938293 5.60832
                CHANNELS 3 Zrotation Xrotation Yrotation
                JOINT rIndex2
                {
                  OFFSET -2.54057 -0.884171 1.56538
                  CHANNELS 3 Zrotation Xrotation Yrotation
                  End Site
                  {
                    OFFSET -1.62519 -0.234802 1.16502
                  }
                }
              }
              JOINT rMid1
              {
                OFFSET -8.24714 1.18213 3.41376
                CHANNELS 3 Zrotation Xrotation Yrotation
                JOINT rMid2
                {
                  OFFSET -3.10165 -0.590103 1.0647
                  CHANNELS 3 Zrotation Xrotation Yrotation
                  End Site
                  {
                    OFFSET -2.48547 -0.328903 0.83742
                  }
                }
              }
              JOINT rRing1
              {
                OFFSET -8.82822 0.546677 1.51678
                CHANNELS 3 Zrotation Xrotation Yrotation
                JOINT rRing2
                {
                  OFFSET -2.60934 -0.819778 -0.0198488
                  CHANNELS 3 Zrotation Xrotation Yrotation
                  End Site
                  {
                    OFFSET -2.33842 -0.294052 0.168128
                  }
                }
              }
              JOINT rPinky1
              {
                OFFSET -8.27202 -0.0477905 -0.4584
                CHANNELS 3 Zrotation Xrotation Yrotation
                JOINT rPinky2
                {
                  OFFSET -1.82734 -0.647385 -0.700984
                  CHANNELS 3 Zrotation Xrotation Yrotation
                  End Site
                  {
                    OFFSET -1.69225 -0.51767 -0.607171
                  }
                }
              }
            }
          }
        }
      }
      JOINT lCollar
      {
        OFFSET 2.68224 19.2634 -4.8768
        CHANNELS 3 Zrotation Xrotation Yrotation
        JOINT lShldr
        {
          OFFSET 8.77824 -1.95073 1.46304
          CHANNELS 3 Zrotation Xrotation Yrotation
          JOINT lForeArm
          {
            OFFSET 28.1742 -1.7115 0.48768
            CHANNELS 3 Zrotation Xrotation Yrotation
            JOINT lHand
            {
              OFFSET 22.5879 0.773209 7.07136
              CHANNELS 3 Zrotation Xrotation Yrotation
              JOINT lThumb1
              {
                OFFSET 1.2192 -0.487915 3.41376
                CHANNELS 3 Zrotation Xrotation Yrotation
                JOINT lThumb2
                {
                  OFFSET 3.37035 -0.52449 3.41376
                  CHANNELS 3 Zrotation Xrotation Yrotation
                  End Site
                  {
                    OFFSET 1.78271 -1.18214 1.43049
                  }
                }
              }
              JOINT lIndex1
              {
                OFFSET 7.75947 0.938293 5.60832
                CHANNELS 3 Zrotation Xrotation Yrotation
                JOINT lIndex2
                {
                  OFFSET 2.54057 -0.884171 1.56538
                  CHANNELS 3 Zrotation Xrotation Yrotation
                  End Site
                  {
                    OFFSET 1.62519 -0.234802 1.16502
                  }
                }
              }
              JOINT lMid1
              {
                OFFSET 8.24714 1.18213 3.41376
                CHANNELS 3 Zrotation Xrotation Yrotation
                JOINT lMid2
                {
                  OFFSET 3.10165 -0.590103 1.0647
                  CHANNELS 3 Zrotation Xrotation Yrotation
                  End Site
                  {
                    OFFSET 2.48547 -0.328903 0.83742
                  }
                }
              }
              JOINT lRing1
              {
                OFFSET 8.82822 0.546677 1.51678
                CHANNELS 3 Zrotation Xrotation Yrotation
                JOINT lRing2
                {
                  OFFSET 2.60934 -0.819778 -0.0198488
                  CHANNELS 3 Zrotation Xrotation Yrotation
                  End Site
                  {
                    OFFSET 2.33842 -0.294052 0.168128
                  }
                }
              }
              JOINT lPinky1
              {
                OFFSET 8.27202 -0.0477905 -0.4584
                CHANNELS 3 Zrotation Xrotation Yrotation
                JOINT lPinky2
                {
                  OFFSET 1.82734 -0.647385 -0.700984
                  CHANNELS 3 Zrotation Xrotation Yrotation
                  End Site
                  {
                    OFFSET 1.69225 -0.51767 -0.607171
                  }
                }
              }
            }
          }
        }
      }
    }
  }
  JOINT rButtock
  {
    OFFSET -8.77824 4.35084 1.2192
    CHANNELS 3 Zrotation Xrotation Yrotation
    JOINT rThigh
    {
      OFFSET 0 -1.70687 -2.19456
      CHANNELS 3 Zrotation Xrotation Yrotation
      JOINT rShin
      {
        OFFSET 0 -36.8199 0.73152
        CHANNELS 3 Zrotation Xrotation Yrotation
        JOINT rFoot
        {
          OFFSET 0.73152 -45.1104 -5.12064
          CHANNELS 3 Zrotation Xrotation Yrotation
          End Site
          {
            OFFSET -1.1221 -3.69964 12.103
          }
        }
      }
    }
  }
  JOINT lButtock
  {
    OFFSET 8.77824 4.35084 1.2192
    CHANNELS 3 Zrotation Xrotation Yrotation
    JOINT lThigh
    {
      OFFSET 0 -1.70687 -2.19456
      CHANNELS 3 Zrotation Xrotation Yrotation
      JOINT lShin
      {
        OFFSET 0 -36.8199 0.73152
        CHANNELS 3 Zrotation Xrotation Yrotation
        JOINT lFoot
        {
          OFFSET -0.73152 -45.1104 -5.12064
          CHANNELS 3 Zrotation Xrotation Yrotation
          End Site
          {
            OFFSET 1.1221 -3.69964 12.103
          }
        }
      }
    }
  }
}
MOTION
Frames:	6
Frame Time:	0.00833333
52.9468 84.6191 -75.9786 -0.984 -1.25497 -3.82334 2.172 1.20952 1.08169 5.34629 -3.28777 0.571189 -10.812 -4.8516 -2.80868 8.34775 -0.648454 -1.62416 -0 0 0 -0 0 0 -3.90496e-014 -4.97252e-014 -1.33842e-013 61.97 42.4358 24.9405 -26.3893 -45.4786 94.4498 -0.837373 -25.0575 -3.76739 -3.05617e-010 -9.45574e-011 -1.69122e-010 -5.27007e-010 -1.60069e-010 -2.95524e-010 -3.05609e-010 -9.45536e-011 -1.69133e-010 7.73091 5.47488 0.417314 -3.05621e-010 -9.45587e-011 -1.69121e-010 2.90554 0.965183 0.102902 -3.05612e-010 -9.45577e-011 -1.69117e-010 10.2786 0.731801 0.0259123 -3.05624e-010 -9.45565e-011 -1.6911e-010 2.22167 -0.733487 -0.20892 -3.89601e-014 -4.97101e-014 -1.33878e-013 -62.9768 37.3969 -30.7139 27.6773 -41.8572 -87.3217 0.145988 -10.8356 1.54141 -4.17804e-010 -4.3649e-010 2.03418e-010 -7.2578e-010 -7.46945e-010 3.50743e-010 -4.17816e-010 -4.36479e-010 2.03429e-010 -7.73091 5.47488 -0.417314 -4.1781e-010 -4.36482e-010 2.03412e-010 -2.90554 0.965183 -0.102902 -4.17814e-010 -4.36482e-010 2.03411e-010 -10.2786 0.731801 -0.0259123 -4.17799e-010 -4.36488e-010 2.03408e-010 -2.22167 -0.733487 0.20892 -2.03217e-016 0 -3.88251e-019 -5.20817 -5.44029 1.06177 -0.0107067 16.9766 0.232496 -1.82315 -6.7431 -9.4062 2.03217e-016 0 3.88251e-019 5.12519 -4.8878 0.137223 0.0985414 17.2403 -0.290525 1.49374 -8.41967 4.73593 
52.9942 84.6061 -75.9161 -0.902854 -1.30724 -3.8567 2.09378 1.20572 1.0919 5.31021 -3.20923 0.569596 -10.7989 -4.97479 -2.79765 8.25025 -0.363355 -1.60648 -0 0 0 -0 0 0 -3.51414e-014 -6.99815e-014 -1.77266e-013 62.2707 42.5298 24.7349 -26.3794 -45.4998 94.4941 -0.820703 -24.825 -3.72763 -3.77603e-010 -8.97469e-011 -3.70675e-010 -6.47825e-010 -1.42794e-010 -6.45169e-010 -3.77593e-010 -8.97358e-011 -3.70687e-010 7.73091 5.47488 0.417314 -3.77606e-010 -8.97471e-011 -3.70675e-010 2.90554 0.965183 0.102902 -3.77598e-010 -8.97458e-011 -3.70671e-010 10.2786 0.731801 0.0259123 -3.77609e-010 -8.97433e-011 -3.70665e-010 2.22167 -0.733487 -0.20892 -3.50817e-014 -6.99625e-014 -1.77316e-013 -62.9118 37.4976 -30.8823 27.6882 -41.8175 -87.245 0.152815 -11.0742 1.57625 -4.61037e-010 -5.15139e-010 4.38427e-010 -8.02201e-010 -8.78768e-010 7.57106e-010 -4.6105e-010 -5.15129e-010 4.38436e-010 -7.73091 5.47488 -0.417314 -4.61044e-010 -5.1513e-010 4.3842e-010 -2.90554 0.965183 -0.102902 -4.61048e-010 -5.15129e-010 4.3842e-010 -10.2786 0.731801 -0.0259123 -4.61033e-010 -5.15137e-010 4.38417e-010 -2.22167 -0.733487 0.20892 -2.03217e-016 0 -3.88251e-019 -5.33793 -5.43261 0.994246 -0.0103919 17.0876 0.23421 -1.82129 -6.82599 -9.29508 2.03217e-016 0 3.88251e-019 5.01909 -4.80408 0.20964 0.0986335 17.2608 -0.290942 1.49244 -8.46107 4.71735 
53.1122 84.6162 -75.8422 -1.05289 -1.36323 -3.98216 2.29671 1.22161 1.16268 5.1484 -3.20245 0.586475 -10.7099 -4.93994 -2.79521 8.09692 -0.23513 -1.64989 -0 0 0 -0 0 0 -3.12185e-014 -7.02613e-014 -1.93383e-013 62.6557 42.8556 24.5312 -26.3768 -45.5052 94.5057 -0.809402 -24.6664 -3.70056 -3.56129e-010 -5.1084e-011 -4.52235e-010 -6.08655e-010 -7.0497e-011 -7.86755e-010 -3.56119e-010 -5.10714e-011 -4.52249e-010 7.73091 5.47488 0.417314 -3.5613e-010 -5.1082e-011 -4.52237e-010 2.90554 0.965183 0.102902 -3.56122e-010 -5.10809e-011 -4.52234e-010 10.2786 0.731801 0.0259123 -3.56134e-010 -5.10799e-011 -4.52229e-010 2.22167 -0.733487 -0.20892 -3.1225e-014 -7.02422e-014 -1.93484e-013 -62.7876 37.8663 -31.0766 27.7117 -41.7275 -87.0743 0.156177 -11.1883 1.59294 -3.12539e-010 -5.20727e-010 5.64725e-010 -5.45761e-010 -8.86708e-010 9.76615e-010 -3.1255e-010 -5.20721e-010 5.64735e-010 -7.73091 5.47488 -0.417314 -3.12545e-010 -5.2072e-010 5.6472e-010 -2.90554 0.965183 -0.102902 -3.1255e-010 -5.20719e-010 5.64719e-010 -10.2786 0.731801 -0.0259123 -3.12534e-010 -5.20725e-010 5.64715e-010 -2.22167 -0.733487 0.20892 -2.03217e-016 0 -3.88251e-019 -5.15235 -5.32074 1.14289 -0.010627 17.0164 0.232373 -1.82419 -6.80648 -9.35015 2.03217e-016 0 3.88251e-019 5.18599 -4.76164 0.278458 0.0997705 17.4034 -0.293974 1.50439 -8.57696 4.72911 
53.1806 84.645 -75.7392 -1.35584 -1.42426 -4.16152 2.68758 1.25346 1.27123 4.89398 -3.23869 0.614482 -10.5577 -4.82556 -2.80161 7.88744 -0.179118 -1.74277 -0 0 0 -0 0 0 -2.63644e-014 -5.82029e-014 -1.94306e-013 63.0913 43.3818 24.3517 -26.3805 -45.497 94.4889 -0.799594 -24.5283 -3.67703 -2.75893e-010 1.1682e-011 -4.6977e-010 -4.68644e-010 4.19012e-011 -8.17319e-010 -2.75884e-010 1.16932e-011 -4.69787e-010 7.73091 5.47488 0.417314 -2.75891e-010 1.16874e-011 -4.69777e-010 2.90554 0.965183 0.102902 -2.75882e-010 1.16881e-011 -4.69774e-010 10.2786 0.731801 0.0259123 -2.75898e-010 1.16855e-011 -4.6977e-010 2.22167 -0.733487 -0.20892 -2.64676e-014 -5.81861e-014 -1.94489e-013 -62.5724 38.4625 -31.3515 27.7448 -41.5949 -86.8269 0.157052 -11.2192 1.59746 -3.66091e-011 -4.82076e-010 6.37305e-010 -6.82101e-011 -8.19472e-010 1.10399e-009 -3.66173e-011 -4.82076e-010 6.37318e-010 -7.73091 5.47488 -0.417314 -3.66136e-011 -4.82073e-010 6.37303e-010 -2.90554 0.965183 -0.102902 -3.66204e-011 -4.82073e-010 6.37302e-010 -10.2786 0.731801 -0.0259123 -3.66041e-011 -4.82076e-010 6.37296e-010 -2.22167 -0.733487 0.20892 -2.03217e-016 0 -3.88251e-019 -4.76172 -5.13503 1.42673 -0.0112436 16.8233 0.228215 -1.8297 -6.72081 -9.51256 2.03217e-016 0 3.88251e-019 5.53372 -4.74632 0.348209 0.101661 17.6293 -0.298779 1.5234 -8.74325 4.75264 
53.0643 84.6721 -75.6445 -1.68741 -1.48466 -4.35672 3.11178 1.29499 1.3787 4.6439 -3.29187 0.643169 -10.4049 -4.68715 -2.80262 7.6758 -0.163168 -1.82658 -0 0 0 -0 0 0 -2.28982e-014 -4.01061e-014 -1.86983e-013 63.4452 44.0954 24.2645 -26.3902 -45.4762 94.4454 -0.791342 -24.4115 -3.65716 -1.64691e-010 7.06534e-011 -3.93466e-010 -2.768e-010 1.4337e-010 -6.84923e-010 -1.64683e-010 7.06619e-011 -3.93485e-010 7.73091 5.47488 0.417314 -1.64686e-010 7.0662e-011 -3.93477e-010 2.90554 0.965183 0.102902 -1.64676e-010 7.06621e-011 -3.93475e-010 10.2786 0.731801 0.0259123 -1.64695e-010 7.06559e-011 -3.9347e-010 2.22167 -0.733487 -0.20892 -2.30914e-014 -4.00923e-014 -1.87243e-013 -62.3056 39.2033 -31.7001 27.7804 -41.4454 -86.5514 0.15709 -11.2234 1.59806 2.46138e-010 -4.56151e-010 5.88567e-010 4.22124e-010 -7.76672e-010 1.02141e-009 2.46133e-010 -4.56157e-010 5.88582e-010 -7.73091 5.47488 -0.417314 2.46136e-010 -4.56153e-010 5.88568e-010 -2.90554 0.965183 -0.102902 2.46127e-010 -4.56153e-010 5.88566e-010 -10.2786 0.731801 -0.0259123 2.46143e-010 -4.56153e-010 5.88558e-010 -2.22167 -0.733487 0.20892 -2.03217e-016 0 -3.88251e-019 -4.33504 -4.95137 1.73993 -0.0119223 16.626 0.223918 -1.83596 -6.62573 -9.69229 2.03217e-016 0 3.88251e-019 5.91352 -4.7379 0.415755 0.103657 17.8682 -0.303897 1.54733 -8.91575 4.79436 
52.714 84.6617 -75.7364 -1.92312 -1.53882 -4.52964 3.41484 1.33991 1.44622 4.49505 -3.33587 0.662082 -10.3138 -4.58021 -2.784 7.51604 -0.155131 -1.84275 -0 0 0 -0 0 0 -2.31391e-014 -2.22709e-014 -1.7836e-013 63.5785 44.9829 24.3428 -26.4055 -45.4436 94.3769 -0.784717 -24.3168 -3.64109 -5.03188e-011 9.79325e-011 -1.93508e-010 -8.21342e-011 1.82879e-010 -3.37627e-010 -5.0312e-011 9.79388e-011 -1.93527e-010 7.73091 5.47488 0.417314 -5.03121e-011 9.79426e-011 -1.93521e-010 2.90554 0.965183 0.102902 -5.03024e-011 9.79423e-011 -1.93518e-010 10.2786 0.731801 0.0259123 -5.03225e-011 9.79344e-011 -1.93514e-010 2.22167 -0.733487 -0.20892 -2.33781e-014 -2.22584e-014 -1.78658e-013 -62.0282 40.0059 -32.113 27.8128 -41.3054 -86.2944 0.157989 -11.2571 1.60297 4.15089e-010 -4.99917e-010 3.50907e-010 7.16914e-010 -8.5792e-010 6.11059e-010 4.15085e-010 -4.99926e-010 3.50923e-010 -7.73091 5.47488 -0.417314 4.15088e-010 -4.99922e-010 3.50911e-010 -2.90554 0.965183 -0.102902 4.15078e-010 -4.99922e-010 3.50907e-010 -10.2786 0.731801 -0.0259123 4.15094e-010 -4.9992e-010 3.50898e-010 -2.22167 -0.733487 0.20892 -2.03217e-016 0 -3.88251e-019 -4.03864 -4.84578 1.97686 -0.0122862 16.542 0.221639 -1.84209 -6.57792 -9.79943 2.03217e-016 0 3.88251e-019 6.1765 -4.71615 0.477953 0.105064 18.0492 -0.307849 1.57406 -9.05031 4.86065 
